<svg xmlns="http://www.w3.org/2000/svg" viewBox="0 0 256 256" role="img" aria-label="Bazaar">
  <title>Bazaar dark</title>
  <rect width="256" height="256" fill="#1a1a1a"/>

  <rect x="40" y="36" width="176" height="184" fill="none" stroke="#f1ebe1" stroke-width="4"/>
  <rect x="48" y="48" width="160" height="3" fill="#c89b27"/>

  <rect x="48" y="58" width="44" height="44" fill="#c1502e"/>
  <text x="70" y="93" text-anchor="middle" font-family="'Playfair Display', Georgia, serif" font-weight="900" font-size="34" fill="#f1ebe1">B</text>

  <rect x="100" y="62" width="108" height="6" fill="#f1ebe1"/>
  <rect x="100" y="76" width="80"  height="4" fill="#f1ebe1" opacity="0.65"/>
  <rect x="100" y="88" width="96"  height="3" fill="#f1ebe1" opacity="0.4"/>

  <rect x="48" y="112" width="160" height="2" fill="#f1ebe1"/>

  <line x1="101" y1="122" x2="101" y2="208" stroke="#f1ebe1" stroke-width="0.8" opacity="0.25"/>
  <line x1="155" y1="122" x2="155" y2="208" stroke="#f1ebe1" stroke-width="0.8" opacity="0.25"/>

  <g fill="#f1ebe1" opacity="0.45">
    <rect x="48"  y="124" width="48" height="3"/>
    <rect x="48"  y="132" width="48" height="3"/>
    <rect x="48"  y="140" width="40" height="3"/>
    <rect x="48"  y="148" width="48" height="3"/>
    <rect x="48"  y="156" width="36" height="3"/>
    <rect x="48"  y="164" width="48" height="3"/>
    <rect x="48"  y="172" width="44" height="3"/>
    <rect x="48"  y="180" width="32" height="3"/>
  </g>

  <g fill="#f1ebe1" opacity="0.45">
    <rect x="106" y="124" width="44" height="3"/>
    <rect x="106" y="132" width="44" height="3"/>
    <rect x="106" y="140" width="36" height="3"/>
    <rect x="106" y="148" width="44" height="3"/>
    <rect x="106" y="156" width="40" height="3"/>
    <rect x="106" y="164" width="44" height="3"/>
    <rect x="106" y="172" width="28" height="3"/>
  </g>

  <g fill="#f1ebe1" opacity="0.45">
    <rect x="160" y="124" width="48" height="3"/>
    <rect x="160" y="132" width="48" height="3"/>
    <rect x="160" y="140" width="40" height="3"/>
    <rect x="160" y="148" width="48" height="3"/>
    <rect x="160" y="156" width="32" height="3"/>
  </g>

  <path d="M128 196 L134 204 L128 212 L122 204 Z" fill="#c89b27"/>
</svg>
